<svg xmlns="http://www.w3.org/2000/svg" version="1.1" id="Capa_1" x="0" y="0" width="512" height="512" viewBox="0 0 435.505 435.505" xml:space="preserve"><g fill="#FFF"><path d="M403.496 101.917c-4.104-5.073-8.877-9.705-14.166-13.839.707 13.117-.508 27.092-3.668 41.884-8.627 40.413-29.256 74.754-59.656 99.304-30.375 24.533-68.305 37.502-109.686 37.502h-60.344l-19.533 91.512c-3.836 17.959-19.943 30.99-38.303 30.99H70.938l-4.898 22.484a19.595 19.595 0 0 0 3.887 16.453 19.58 19.58 0 0 0 15.25 7.298h66.498c9.24 0 17.225-6.459 19.152-15.495L193.667 313h76.188c36.854 0 70.527-11.464 97.384-33.152 26.869-21.697 45.129-52.186 52.807-88.162 7.776-36.377 2.207-66.58-16.55-89.769z"/><path d="M117.292 354.191l22.84-107.008h76.188c36.852 0 70.527-11.465 97.383-33.154 26.867-21.697 45.129-52.186 52.809-88.161 7.773-36.378 2.207-66.58-16.553-89.769C331.952 13.832 301.17 0 269.633 0H103.639a19.585 19.585 0 0 0-19.135 15.414L12.505 345.938a19.583 19.583 0 0 0 19.135 23.749h66.5c9.24 0 17.22-6.458 19.152-15.496zm60.943-278.9h52.229c12.287 0 23.274 5.149 30.145 14.129 7.297 9.539 9.431 22.729 5.853 36.188-.047.171-.088.342-.131.516-6.57 27.73-33.892 50.291-60.898 50.291h-50.05l22.852-101.124z"/></g></svg>